<mxfile host="65bd71144e" scale="1" border="0">
        <diagram id="MgYzXS6eyhghL7g_6re2" name="Page-1">
            <mxGraphModel dx="1494" dy="610" grid="1" gridSize="10" guides="1" tooltips="1" connect="1" arrows="1" fold="1" page="1" pageScale="1" pageWidth="827" pageHeight="1169" math="0" shadow="0">
                <root>
                    <mxCell id="0"/>
                    <mxCell id="2" value="DFF" parent="0"/>
    
                <UserObject label="start_node" data_from_form="&quot;flow&quot;:&quot;greeting_flow&quot;" id="5">
                    <mxCell style="rounded=0;whiteSpace=wrap;html=1;" parent="2" vertex="1">
                        <mxGeometry x="150" y="70" width="120" height="60" as="geometry"/>
                    </mxCell>
                </UserObject>
                    <mxCell id="4" value="Hi there!" style="edgeStyle=orthogonalEdgeStyle;rounded=0;orthogonalLoop=1;jettySize=auto;html=1;noEdgeStyle=1;orthogonal=1;" parent="2" source="5" target="7" edge="1">
                        <mxGeometry relative="1" as="geometry">
                            <Array as="points">
                                <mxPoint x="150" y="70"/>
                                <mxPoint x="150" y="70"/>
                            </Array>
                        </mxGeometry>
                    </mxCell>
                <UserObject label="node1" data_from_form="&quot;flow&quot;:&quot;greeting_flow&quot;" id="7">
                    <mxCell style="rounded=0;whiteSpace=wrap;html=1;" parent="2" vertex="1">
                        <mxGeometry x="150" y="70" width="120" height="60" as="geometry"/>
                    </mxCell>
                </UserObject>
                    <mxCell id="6" value="foo.bar('i'm fine, how are you?')" style="edgeStyle=orthogonalEdgeStyle;rounded=0;orthogonalLoop=1;jettySize=auto;html=1;noEdgeStyle=1;orthogonal=1;" parent="2" source="7" target="9" edge="1">
                        <mxGeometry relative="1" as="geometry">
                            <Array as="points">
                                <mxPoint x="150" y="70"/>
                                <mxPoint x="150" y="70"/>
                            </Array>
                        </mxGeometry>
                    </mxCell>
                <UserObject label="node2" data_from_form="&quot;flow&quot;:&quot;greeting_flow&quot;" id="9">
                    <mxCell style="rounded=0;whiteSpace=wrap;html=1;" parent="2" vertex="1">
                        <mxGeometry x="150" y="70" width="120" height="60" as="geometry"/>
                    </mxCell>
                </UserObject>
                    <mxCell id="8" value="cnd.exact_match()" style="edgeStyle=orthogonalEdgeStyle;rounded=0;orthogonalLoop=1;jettySize=auto;html=1;noEdgeStyle=1;orthogonal=1;" parent="2" source="9" target="11" edge="1">
                        <mxGeometry relative="1" as="geometry">
                            <Array as="points">
                                <mxPoint x="150" y="70"/>
                                <mxPoint x="150" y="70"/>
                            </Array>
                        </mxGeometry>
                    </mxCell>
                <UserObject label="node3" data_from_form="&quot;flow&quot;:&quot;greeting_flow&quot;" id="11">
                    <mxCell style="rounded=0;whiteSpace=wrap;html=1;" parent="2" vertex="1">
                        <mxGeometry x="150" y="70" width="120" height="60" as="geometry"/>
                    </mxCell>
                </UserObject>
                    <mxCell id="10" value="cnd.exact_match('Ok, goodbye.')" style="edgeStyle=orthogonalEdgeStyle;rounded=0;orthogonalLoop=1;jettySize=auto;html=1;noEdgeStyle=1;orthogonal=1;" parent="2" source="11" target="13" edge="1">
                        <mxGeometry relative="1" as="geometry">
                            <Array as="points">
                                <mxPoint x="150" y="70"/>
                                <mxPoint x="150" y="70"/>
                            </Array>
                        </mxGeometry>
                    </mxCell>
                <UserObject label="node4" data_from_form="&quot;flow&quot;:&quot;greeting_flow&quot;" id="13">
                    <mxCell style="rounded=0;whiteSpace=wrap;html=1;" parent="2" vertex="1">
                        <mxGeometry x="150" y="70" width="120" height="60" as="geometry"/>
                    </mxCell>
                </UserObject>
                    <mxCell id="12" value="cnd.exact_match('Hi')" style="edgeStyle=orthogonalEdgeStyle;rounded=0;orthogonalLoop=1;jettySize=auto;html=1;noEdgeStyle=1;orthogonal=1;" parent="2" source="13" target="7" edge="1">
                        <mxGeometry relative="1" as="geometry">
                            <Array as="points">
                                <mxPoint x="150" y="70"/>
                                <mxPoint x="150" y="70"/>
                            </Array>
                        </mxGeometry>
                    </mxCell>
                <UserObject label="fallback_node" data_from_form="&quot;flow&quot;:&quot;greeting_flow&quot;" id="15">
                    <mxCell style="rounded=0;whiteSpace=wrap;html=1;" parent="2" vertex="1">
                        <mxGeometry x="150" y="70" width="120" height="60" as="geometry"/>
                    </mxCell>
                </UserObject>
                    <mxCell id="14" value="cnd.exact_match('Hi')" style="edgeStyle=orthogonalEdgeStyle;rounded=0;orthogonalLoop=1;jettySize=auto;html=1;noEdgeStyle=1;orthogonal=1;" parent="2" source="15" target="7" edge="1">
                        <mxGeometry relative="1" as="geometry">
                            <Array as="points">
                                <mxPoint x="150" y="70"/>
                                <mxPoint x="150" y="70"/>
                            </Array>
                        </mxGeometry>
                    </mxCell>
                <UserObject label="start_node" data_from_form="&quot;flow&quot;:&quot;small_talk_flow&quot;" id="17">
                    <mxCell style="rounded=0;whiteSpace=wrap;html=1;" parent="2" vertex="1">
                        <mxGeometry x="150" y="370" width="120" height="60" as="geometry"/>
                    </mxCell>
                </UserObject>
                    <mxCell id="16" value="How are you!" style="edgeStyle=orthogonalEdgeStyle;rounded=0;orthogonalLoop=1;jettySize=auto;html=1;noEdgeStyle=1;orthogonal=1;" parent="2" source="17" target="19" edge="1">
                        <mxGeometry relative="1" as="geometry">
                            <Array as="points">
                                <mxPoint x="150" y="370"/>
                                <mxPoint x="150" y="370"/>
                            </Array>
                        </mxGeometry>
                    </mxCell>
                <UserObject label="node1" data_from_form="&quot;flow&quot;:&quot;small_talk_flow&quot;" id="19">
                    <mxCell style="rounded=0;whiteSpace=wrap;html=1;" parent="2" vertex="1">
                        <mxGeometry x="150" y="370" width="120" height="60" as="geometry"/>
                    </mxCell>
                </UserObject>
                    <mxCell id="18" value="foo.bar('i'm fine, how are you?')" style="edgeStyle=orthogonalEdgeStyle;rounded=0;orthogonalLoop=1;jettySize=auto;html=1;noEdgeStyle=1;orthogonal=1;" parent="2" source="19" target="21" edge="1">
                        <mxGeometry relative="1" as="geometry">
                            <Array as="points">
                                <mxPoint x="150" y="370"/>
                                <mxPoint x="150" y="370"/>
                            </Array>
                        </mxGeometry>
                    </mxCell>
                <UserObject label="node2" data_from_form="&quot;flow&quot;:&quot;small_talk_flow&quot;" id="21">
                    <mxCell style="rounded=0;whiteSpace=wrap;html=1;" parent="2" vertex="1">
                        <mxGeometry x="150" y="370" width="120" height="60" as="geometry"/>
                    </mxCell>
                </UserObject>
                    <mxCell id="20" value="cnd.exact_match()" style="edgeStyle=orthogonalEdgeStyle;rounded=0;orthogonalLoop=1;jettySize=auto;html=1;noEdgeStyle=1;orthogonal=1;" parent="2" source="21" target="23" edge="1">
                        <mxGeometry relative="1" as="geometry">
                            <Array as="points">
                                <mxPoint x="150" y="370"/>
                                <mxPoint x="150" y="370"/>
                            </Array>
                        </mxGeometry>
                    </mxCell>
                <UserObject label="node3" data_from_form="&quot;flow&quot;:&quot;small_talk_flow&quot;" id="23">
                    <mxCell style="rounded=0;whiteSpace=wrap;html=1;" parent="2" vertex="1">
                        <mxGeometry x="150" y="370" width="120" height="60" as="geometry"/>
                    </mxCell>
                </UserObject>
                    <mxCell id="22" value="cnd.exact_match('Ok, goodbye.')" style="edgeStyle=orthogonalEdgeStyle;rounded=0;orthogonalLoop=1;jettySize=auto;html=1;noEdgeStyle=1;orthogonal=1;" parent="2" source="23" target="25" edge="1">
                        <mxGeometry relative="1" as="geometry">
                            <Array as="points">
                                <mxPoint x="150" y="370"/>
                                <mxPoint x="150" y="370"/>
                            </Array>
                        </mxGeometry>
                    </mxCell>
                <UserObject label="node4" data_from_form="&quot;flow&quot;:&quot;small_talk_flow&quot;" id="25">
                    <mxCell style="rounded=0;whiteSpace=wrap;html=1;" parent="2" vertex="1">
                        <mxGeometry x="150" y="370" width="120" height="60" as="geometry"/>
                    </mxCell>
                </UserObject>
                    <mxCell id="24" value="cnd.exact_match('Hi')" style="edgeStyle=orthogonalEdgeStyle;rounded=0;orthogonalLoop=1;jettySize=auto;html=1;noEdgeStyle=1;orthogonal=1;" parent="2" source="25" target="19" edge="1">
                        <mxGeometry relative="1" as="geometry">
                            <Array as="points">
                                <mxPoint x="150" y="370"/>
                                <mxPoint x="150" y="370"/>
                            </Array>
                        </mxGeometry>
                    </mxCell>
                <UserObject label="fallback_node" data_from_form="&quot;flow&quot;:&quot;small_talk_flow&quot;" id="27">
                    <mxCell style="rounded=0;whiteSpace=wrap;html=1;" parent="2" vertex="1">
                        <mxGeometry x="150" y="370" width="120" height="60" as="geometry"/>
                    </mxCell>
                </UserObject>
                    <mxCell id="26" value="cnd.exact_match('Hi')" style="edgeStyle=orthogonalEdgeStyle;rounded=0;orthogonalLoop=1;jettySize=auto;html=1;noEdgeStyle=1;orthogonal=1;" parent="2" source="27" target="19" edge="1">
                        <mxGeometry relative="1" as="geometry">
                            <Array as="points">
                                <mxPoint x="150" y="370"/>
                                <mxPoint x="150" y="370"/>
                            </Array>
                        </mxGeometry>
                    </mxCell>
                    <mxCell id="3" value="Suggestions" parent="0"/>
                    </root>
                </mxGraphModel>
            </diagram>
        </mxfile>